HIERARCHY
ROOT Hips
{
	OFFSET -20.575302 -32.078365 87.152718
	CHANNELS 6 Xposition Yposition Zposition Zrotation Yrotation Xrotation
	JOINT Spine
	{
		OFFSET 0.000000 2.080107 8.814247
		CHANNELS 6 Xposition Yposition Zposition Zrotation Yrotation Xrotation
		JOINT Spine1
		{
			OFFSET 0.000000 0.000000 8.844139
			CHANNELS 6 Xposition Yposition Zposition Zrotation Yrotation Xrotation
			JOINT Spine2
			{
				OFFSET 0.000000 0.000002 11.682266
				CHANNELS 6 Xposition Yposition Zposition Zrotation Yrotation Xrotation
				JOINT Spine3
				{
					OFFSET 0.000000 0.000000 11.746696
					CHANNELS 6 Xposition Yposition Zposition Zrotation Yrotation Xrotation
					JOINT Neck
					{
						OFFSET 0.000000 0.000002 17.658264
						CHANNELS 6 Xposition Yposition Zposition Zrotation Yrotation Xrotation
						JOINT Neck1
						{
							OFFSET 0.000000 0.000000 5.101517
							CHANNELS 6 Xposition Yposition Zposition Zrotation Yrotation Xrotation
							JOINT Head
							{
								OFFSET 0.000000 0.000000 5.101517
								CHANNELS 6 Xposition Yposition Zposition Zrotation Yrotation Xrotation
								JOINT HeadEnd
								{
									OFFSET 0.000000 0.000002 11.655090
									CHANNELS 6 Xposition Yposition Zposition Zrotation Yrotation Xrotation
									End Site
									{
										OFFSET 0.000000 0.000000 0.100006
									}
								}
							}
						}
					}
					JOINT RightShoulder
					{
						OFFSET -2.625389 0.000002 11.175217
						CHANNELS 6 Xposition Yposition Zposition Zrotation Yrotation Xrotation
						JOINT RightArm
						{
							OFFSET 0.000000 0.000000 10.434723
							CHANNELS 6 Xposition Yposition Zposition Zrotation Yrotation Xrotation
							JOINT RightForeArm
							{
								OFFSET 0.000000 0.000002 29.628418
								CHANNELS 6 Xposition Yposition Zposition Zrotation Yrotation Xrotation
								JOINT RightHand
								{
									OFFSET 0.000000 0.000002 22.857605
									CHANNELS 6 Xposition Yposition Zposition Zrotation Yrotation Xrotation
									JOINT RightHandThumb1
									{
										OFFSET -2.867323 -2.944292 3.959564
										CHANNELS 6 Xposition Yposition Zposition Zrotation Yrotation Xrotation
										JOINT RightHandThumb2
										{
											OFFSET 0.000000 0.000000 3.350403
											CHANNELS 6 Xposition Yposition Zposition Zrotation Yrotation Xrotation
											JOINT RightHandThumb3
											{
												OFFSET 0.000000 0.000000 3.756516
												CHANNELS 6 Xposition Yposition Zposition Zrotation Yrotation Xrotation
												JOINT RightHandThumb4
												{
													OFFSET 0.000000 0.000000 3.147339
													CHANNELS 6 Xposition Yposition Zposition Zrotation Yrotation Xrotation
													End Site
													{
														OFFSET 0.000000 0.000000 0.100006
													}
												}
											}
										}
									}
									JOINT RightHandIndex1
									{
										OFFSET -0.086752 -2.345282 10.030899
										CHANNELS 6 Xposition Yposition Zposition Zrotation Yrotation Xrotation
										JOINT RightHandIndex2
										{
											OFFSET 0.000000 0.000000 4.061096
											CHANNELS 6 Xposition Yposition Zposition Zrotation Yrotation Xrotation
											JOINT RightHandIndex3
											{
												OFFSET 0.000000 0.000000 3.248871
												CHANNELS 6 Xposition Yposition Zposition Zrotation Yrotation Xrotation
												JOINT RightHandIndex4
												{
													OFFSET 0.000000 0.000000 2.639709
													CHANNELS 6 Xposition Yposition Zposition Zrotation Yrotation Xrotation
													End Site
													{
														OFFSET 0.000000 0.000000 0.100006
													}
												}
											}
										}
									}
									JOINT RightHandMiddle1
									{
										OFFSET 0.104101 -0.006767 9.502945
										CHANNELS 6 Xposition Yposition Zposition Zrotation Yrotation Xrotation
										JOINT RightHandMiddle2
										{
											OFFSET 0.000000 0.000002 4.568726
											CHANNELS 6 Xposition Yposition Zposition Zrotation Yrotation Xrotation
											JOINT RightHandMiddle3
											{
												OFFSET 0.000000 0.000000 3.654984
												CHANNELS 6 Xposition Yposition Zposition Zrotation Yrotation Xrotation
												JOINT RightHandMiddle4
												{
													OFFSET 0.000000 0.000000 2.741241
													CHANNELS 6 Xposition Yposition Zposition Zrotation Yrotation Xrotation
													End Site
													{
														OFFSET 0.000000 0.000000 0.100006
													}
												}
											}
										}
									}
									JOINT RightHandRing1
									{
										OFFSET 0.086752 2.267443 8.921707
										CHANNELS 6 Xposition Yposition Zposition Zrotation Yrotation Xrotation
										JOINT RightHandRing2
										{
											OFFSET 0.000000 0.000002 4.061096
											CHANNELS 6 Xposition Yposition Zposition Zrotation Yrotation Xrotation
											JOINT RightHandRing3
											{
												OFFSET 0.000000 0.000000 3.654984
												CHANNELS 6 Xposition Yposition Zposition Zrotation Yrotation Xrotation
												JOINT RightHandRing4
												{
													OFFSET 0.000000 0.000000 2.741241
													CHANNELS 6 Xposition Yposition Zposition Zrotation Yrotation Xrotation
													End Site
													{
														OFFSET 0.000000 0.000000 0.100006
													}
												}
											}
										}
									}
									JOINT RightHandPinky1
									{
										OFFSET -0.173504 4.467199 7.976990
										CHANNELS 6 Xposition Yposition Zposition Zrotation Yrotation Xrotation
										JOINT RightHandPinky2
										{
											OFFSET 0.000000 0.000000 3.350403
											CHANNELS 6 Xposition Yposition Zposition Zrotation Yrotation Xrotation
											JOINT RightHandPinky3
											{
												OFFSET 0.000000 0.000002 2.842758
												CHANNELS 6 Xposition Yposition Zposition Zrotation Yrotation Xrotation
												JOINT RightHandPinky4
												{
													OFFSET 0.000000 0.000000 2.639709
													CHANNELS 6 Xposition Yposition Zposition Zrotation Yrotation Xrotation
													End Site
													{
														OFFSET 0.000000 0.000000 0.100006
													}
												}
											}
										}
									}
									JOINT RightForeArmEnd
									{
										OFFSET 0.000000 0.000000 0.000000
										CHANNELS 6 Xposition Yposition Zposition Zrotation Yrotation Xrotation
										End Site
										{
											OFFSET 0.000000 0.000000 0.100006
										}
									}
								}
								JOINT RightArmEnd
								{
									OFFSET 0.000000 0.000000 0.000000
									CHANNELS 6 Xposition Yposition Zposition Zrotation Yrotation Xrotation
									End Site
									{
										OFFSET 0.000000 0.000000 0.100006
									}
								}
							}
						}
					}
					JOINT LeftShoulder
					{
						OFFSET 2.625389 0.000002 11.175217
						CHANNELS 6 Xposition Yposition Zposition Zrotation Yrotation Xrotation
						JOINT LeftArm
						{
							OFFSET 0.000000 0.000000 10.813629
							CHANNELS 6 Xposition Yposition Zposition Zrotation Yrotation Xrotation
							JOINT LeftForeArm
							{
								OFFSET 0.000000 0.000002 28.724777
								CHANNELS 6 Xposition Yposition Zposition Zrotation Yrotation Xrotation
								JOINT LeftHand
								{
									OFFSET 0.644384 0.328873 25.716171
									CHANNELS 6 Xposition Yposition Zposition Zrotation Yrotation Xrotation
									JOINT LeftHandThumb1
									{
										OFFSET 2.867323 -2.944290 3.959564
										CHANNELS 6 Xposition Yposition Zposition Zrotation Yrotation Xrotation
										JOINT LeftHandThumb2
										{
											OFFSET 0.000000 0.000000 3.350403
											CHANNELS 6 Xposition Yposition Zposition Zrotation Yrotation Xrotation
											JOINT LeftHandThumb3
											{
												OFFSET 0.000000 0.000000 3.756516
												CHANNELS 6 Xposition Yposition Zposition Zrotation Yrotation Xrotation
												JOINT LeftHandThumb4
												{
													OFFSET 0.000000 0.000000 3.100006
													CHANNELS 6 Xposition Yposition Zposition Zrotation Yrotation Xrotation
													End Site
													{
														OFFSET 0.000000 0.000000 0.100006
													}
												}
											}
										}
									}
									JOINT LeftHandIndex1
									{
										OFFSET 0.086752 -2.345280 10.030899
										CHANNELS 6 Xposition Yposition Zposition Zrotation Yrotation Xrotation
										JOINT LeftHandIndex2
										{
											OFFSET 0.000000 0.000000 4.061096
											CHANNELS 6 Xposition Yposition Zposition Zrotation Yrotation Xrotation
											JOINT LeftHandIndex3
											{
												OFFSET 0.000000 0.000000 3.248871
												CHANNELS 6 Xposition Yposition Zposition Zrotation Yrotation Xrotation
												JOINT LeftHandIndex4
												{
													OFFSET 0.000000 0.000000 2.639709
													CHANNELS 6 Xposition Yposition Zposition Zrotation Yrotation Xrotation
													End Site
													{
														OFFSET 0.000000 0.000000 0.100006
													}
												}
											}
										}
									}
									JOINT LeftHandMiddle1
									{
										OFFSET -0.104101 -0.006767 9.502945
										CHANNELS 6 Xposition Yposition Zposition Zrotation Yrotation Xrotation
										JOINT LeftHandMiddle2
										{
											OFFSET 0.000000 0.000002 4.568726
											CHANNELS 6 Xposition Yposition Zposition Zrotation Yrotation Xrotation
											JOINT LeftHandMiddle3
											{
												OFFSET 0.000000 0.000000 3.654984
												CHANNELS 6 Xposition Yposition Zposition Zrotation Yrotation Xrotation
												JOINT LeftHandMiddle4
												{
													OFFSET 0.000000 0.000000 2.741241
													CHANNELS 6 Xposition Yposition Zposition Zrotation Yrotation Xrotation
													End Site
													{
														OFFSET 0.000000 0.000000 0.100006
													}
												}
											}
										}
									}
									JOINT LeftHandRing1
									{
										OFFSET -0.086752 2.267443 8.921707
										CHANNELS 6 Xposition Yposition Zposition Zrotation Yrotation Xrotation
										JOINT LeftHandRing2
										{
											OFFSET 0.000000 0.000002 4.061096
											CHANNELS 6 Xposition Yposition Zposition Zrotation Yrotation Xrotation
											JOINT LeftHandRing3
											{
												OFFSET 0.000000 0.000000 3.654984
												CHANNELS 6 Xposition Yposition Zposition Zrotation Yrotation Xrotation
												JOINT LeftHandRing4
												{
													OFFSET 0.000000 0.000000 2.741241
													CHANNELS 6 Xposition Yposition Zposition Zrotation Yrotation Xrotation
													End Site
													{
														OFFSET 0.000000 0.000000 0.100006
													}
												}
											}
										}
									}
									JOINT LeftHandPinky1
									{
										OFFSET 0.173504 4.467199 7.976990
										CHANNELS 6 Xposition Yposition Zposition Zrotation Yrotation Xrotation
										JOINT LeftHandPinky2
										{
											OFFSET 0.000000 0.000002 3.350403
											CHANNELS 6 Xposition Yposition Zposition Zrotation Yrotation Xrotation
											JOINT LeftHandPinky3
											{
												OFFSET 0.000000 0.000000 2.842758
												CHANNELS 6 Xposition Yposition Zposition Zrotation Yrotation Xrotation
												JOINT LeftHandPinky4
												{
													OFFSET 0.000000 0.000000 2.639709
													CHANNELS 6 Xposition Yposition Zposition Zrotation Yrotation Xrotation
													End Site
													{
														OFFSET 0.000000 0.000000 0.100006
													}
												}
											}
										}
									}
									JOINT LeftForeArmEnd
									{
										OFFSET 0.000000 0.000000 0.000000
										CHANNELS 6 Xposition Yposition Zposition Zrotation Yrotation Xrotation
										End Site
										{
											OFFSET 0.000000 0.000000 0.100006
										}
									}
								}
								JOINT LeftArmEnd
								{
									OFFSET 0.000000 0.000000 0.000000
									CHANNELS 6 Xposition Yposition Zposition Zrotation Yrotation Xrotation
									End Site
									{
										OFFSET 0.000000 0.000000 0.100006
									}
								}
							}
						}
					}
				}
			}
		}
	}
	JOINT RightUpLeg
	{
		OFFSET -11.289944 0.000000 0.000000
		CHANNELS 6 Xposition Yposition Zposition Zrotation Yrotation Xrotation
		JOINT RightLeg
		{
			OFFSET 0.000000 -0.000004 -38.200321
			CHANNELS 6 Xposition Yposition Zposition Zrotation Yrotation Xrotation
			JOINT RightFoot
			{
				OFFSET 0.000000 -0.000004 -39.900856
				CHANNELS 6 Xposition Yposition Zposition Zrotation Yrotation Xrotation
				JOINT RightToeBase
				{
					OFFSET 0.000000 -15.261639 0.000001
					CHANNELS 6 Xposition Yposition Zposition Zrotation Yrotation Xrotation
					JOINT RightToeBaseEnd
					{
						OFFSET 0.000000 -7.370708 0.000000
						CHANNELS 6 Xposition Yposition Zposition Zrotation Yrotation Xrotation
						End Site
						{
							OFFSET 0.000000 0.000000 0.100000
						}
					}
				}
				JOINT RightLegEnd
				{
					OFFSET 0.000000 0.000000 0.000000
					CHANNELS 6 Xposition Yposition Zposition Zrotation Yrotation Xrotation
					End Site
					{
						OFFSET 0.000000 0.000000 0.100000
					}
				}
			}
			JOINT RightUpLegEnd
			{
				OFFSET 0.000000 0.000000 0.000000
				CHANNELS 6 Xposition Yposition Zposition Zrotation Yrotation Xrotation
				End Site
				{
					OFFSET 0.000000 0.000000 0.099998
				}
			}
		}
	}
	JOINT LeftUpLeg
	{
		OFFSET 11.315661 0.000000 0.000000
		CHANNELS 6 Xposition Yposition Zposition Zrotation Yrotation Xrotation
		JOINT LeftLeg
		{
			OFFSET 0.000000 -0.000004 -38.200321
			CHANNELS 6 Xposition Yposition Zposition Zrotation Yrotation Xrotation
			JOINT LeftFoot
			{
				OFFSET 0.000000 -0.000004 -39.900856
				CHANNELS 6 Xposition Yposition Zposition Zrotation Yrotation Xrotation
				JOINT LeftToeBase
				{
					OFFSET 0.000000 -15.261639 0.000001
					CHANNELS 6 Xposition Yposition Zposition Zrotation Yrotation Xrotation
					JOINT LeftToeBaseEnd
					{
						OFFSET 0.000000 -7.539997 0.000000
						CHANNELS 6 Xposition Yposition Zposition Zrotation Yrotation Xrotation
						End Site
						{
							OFFSET 0.000000 0.000000 0.100000
						}
					}
				}
				JOINT LeftLegEnd
				{
					OFFSET 0.000000 0.000000 0.000000
					CHANNELS 6 Xposition Yposition Zposition Zrotation Yrotation Xrotation
					End Site
					{
						OFFSET 0.000000 0.000000 0.100000
					}
				}
			}
			JOINT LeftUpLegEnd
			{
				OFFSET 0.000000 0.000000 0.000000
				CHANNELS 6 Xposition Yposition Zposition Zrotation Yrotation Xrotation
				End Site
				{
					OFFSET 0.000000 0.000000 0.099998
				}
			}
		}
	}
}
MOTION
Frames: 2
Frame Time: 0.016667
7.536360 -75.085999 85.713936 69.293034 6.775831 -13.795223 0.000001 2.080110 8.814255 -0.651988 -3.591229 6.901724 -0.000012 0.000002 8.844161 -1.052659 -2.936150 3.997130 0.000006 0.000001 11.682262 -2.478865 -2.708958 9.758420 0.000000 0.000003 11.746697 -0.618024 0.081759 1.619029 0.000005 -0.000002 17.658253 6.719388 -4.165092 11.503836 0.000004 -0.000002 5.101492 5.475305 4.129148 -5.960851 -0.000002 -0.000004 5.101533 3.085210 2.669863 -22.631818 -0.000010 0.000003 11.655106 0.000000 0.000000 -0.000000 -2.625379 0.000003 11.175220 3.592816 -92.931820 -0.579697 0.000011 0.000002 10.434712 -48.914475 -45.951911 33.667338 0.000001 -0.000009 29.628405 38.872215 -3.886466 55.793602 0.000007 -0.000005 22.857592 10.293479 5.122443 -3.600436 -2.867319 -2.944292 3.959557 31.770762 -16.230952 53.109813 -0.000012 -0.000011 3.350411 -10.394997 7.419845 -19.035285 0.000004 -0.000008 3.756515 -6.951700 5.526320 -13.058318 0.000004 0.000008 3.147353 0.000001 -0.000000 0.000001 -0.086753 -2.345283 10.030890 -10.171980 -8.739475 1.333290 -0.000008 0.000013 4.061104 0.454669 -6.222681 0.877778 0.000007 -0.000003 3.248889 -0.045458 -6.222689 0.877782 -0.000012 0.000005 2.639708 -0.000000 0.000001 0.000003 0.104099 -0.006762 9.502951 -5.899846 -12.930955 -0.531752 -0.000001 0.000005 4.568709 0.461415 -9.140598 0.483143 -0.000001 0.000002 3.654983 -0.038598 -9.140566 0.483139 0.000008 -0.000009 2.741273 -0.000000 0.000000 -0.000001 0.086742 2.267444 8.921713 0.550008 -23.086617 -2.880338 -0.000002 0.000003 4.061110 -0.849475 -16.500506 -1.038134 -0.000002 -0.000009 3.654972 0.150536 -16.500362 -1.038123 0.000008 0.000008 2.741225 0.000000 0.000000 0.000003 -0.173494 4.467209 7.976997 8.738817 -31.139355 -10.599595 -0.000007 0.000009 3.350427 -1.055274 -22.790499 -4.684704 -0.000009 0.000005 2.842768 0.944692 -22.790683 -4.684697 0.000003 0.000004 2.639726 0.000001 0.000004 0.000001 0.000006 0.000003 -0.000018 -0.000002 0.000002 0.000006 0.000013 -0.000003 -0.000001 0.000000 0.000000 0.000001 2.625396 0.000005 11.175219 10.576812 89.943852 14.029495 -0.000037 0.000000 10.813631 54.135919 50.271610 37.836714 -0.000011 -0.000042 28.724781 -26.065045 4.325914 57.438811 0.644382 0.328875 25.716179 -9.836529 -11.981609 -6.400957 2.867327 -2.944283 3.959591 -31.570371 17.795611 50.709011 -0.000006 -0.000000 3.350402 13.848209 -8.875884 -24.834969 -0.000003 0.000013 3.756521 9.200080 -6.815957 -16.986805 0.000001 0.000000 3.100009 0.000001 -0.000000 -0.000005 0.086753 -2.345271 10.030895 -4.492099 23.404613 -11.718992 0.000008 -0.000007 4.061089 0.108482 17.511814 -2.541568 0.000005 -0.000007 3.248860 -0.391503 17.511703 -2.541562 -0.000003 -0.000001 2.639709 0.000001 0.000001 0.000001 -0.104099 -0.006757 9.502962 1.515901 27.795453 -8.871575 0.000007 -0.000004 4.568707 0.305217 20.100584 -1.098952 0.000014 -0.000009 3.655009 -0.194781 20.100586 -1.098947 -0.000001 -0.000001 2.741258 0.000001 -0.000002 -0.000004 -0.086751 2.267457 8.921731 13.851379 38.485602 3.553916 0.000009 -0.000001 4.061117 -0.554300 27.477607 1.822826 0.000004 -0.000008 3.654978 0.445742 27.478000 1.822895 -0.000001 -0.000003 2.741239 -0.000001 -0.000002 0.000004 0.173506 4.467207 7.977027 29.033539 43.987122 20.789187 0.000004 0.000015 3.350397 0.156684 33.039240 7.262837 0.000008 0.000017 2.842760 2.156702 33.039257 7.262871 0.000004 -0.000000 2.639710 0.000001 -0.000001 -0.000001 -0.000003 0.000003 0.000014 0.000000 -0.000002 0.000002 -0.000002 -0.000001 0.000001 -0.000001 -0.000001 -0.000003 -11.289946 -0.000009 0.000005 -9.144238 -7.508193 17.432878 0.000004 -0.000009 -38.200310 -0.625156 0.128372 11.555954 -0.000011 0.000006 -39.900856 -16.318249 5.906407 12.635327 -0.000004 -15.261645 -0.000000 -0.715157 0.147043 -28.040387 0.000009 -7.370714 0.000000 0.000002 0.000001 -0.000001 -0.000006 -0.000008 -0.000001 0.000001 -0.000000 0.000002 -0.000010 0.000001 0.000003 -0.000002 -0.000001 0.000001 11.315658 -0.000013 0.000029 5.963499 -22.054059 8.867233 0.000008 -0.000006 -38.200325 1.513001 -0.664947 23.835494 -0.000003 -0.000004 -39.900856 2.400306 9.051176 10.792553 -0.000006 -15.261645 0.000004 1.017421 -0.983268 -27.063071 -0.000006 -7.539997 0.000001 -0.000000 -0.000001 -0.000000 -0.000002 -0.000007 0.000000 0.000000 0.000000 -0.000000 0.000000 -0.000006 0.000003 -0.000000 -0.000000 0.000001 
7.438496 -75.279984 85.710136 69.654139 6.670688 -13.616366 0.000012 2.080107 8.814247 -0.723058 -3.594344 6.862052 -0.000003 -0.000001 8.844157 -0.996473 -2.545299 4.051364 -0.000001 0.000004 11.682252 -2.925469 -2.981686 9.673044 -0.000004 0.000003 11.746700 -0.833547 0.014320 1.593027 -0.000013 0.000007 17.658264 6.604196 -3.743015 11.441065 0.000000 -0.000004 5.101510 5.165325 4.269661 -6.000924 0.000000 -0.000004 5.101521 3.086475 2.667428 -22.559830 -0.000010 0.000004 11.655106 0.000001 0.000000 -0.000000 -2.625401 0.000005 11.175212 3.379062 -93.186607 -0.539760 0.000013 0.000001 10.434726 -49.651784 -46.075715 34.344933 -0.000001 -0.000010 29.628420 37.800763 -3.828905 57.377544 -0.000004 -0.000006 22.857599 11.838850 5.281320 -2.779438 -2.867310 -2.944308 3.959567 31.770755 -16.230944 53.109847 -0.000007 -0.000001 3.350406 -10.395003 7.419827 -19.035375 0.000003 -0.000003 3.756526 -6.951674 5.526334 -13.058274 -0.000008 -0.000004 3.147322 0.000000 0.000000 0.000003 -0.086733 -2.345278 10.030905 -10.135882 -8.536078 1.519544 -0.000005 -0.000010 4.061083 0.451396 -6.100466 0.860937 0.000006 -0.000005 3.248868 -0.048436 -6.100488 0.860929 0.000003 -0.000006 2.639707 0.000001 -0.000001 0.000004 0.104112 -0.006768 9.502937 -5.922526 -13.036854 -0.411572 0.000003 0.000013 4.568714 0.458922 -9.220860 0.487755 -0.000014 0.000006 3.654975 -0.041593 -9.220872 0.487825 -0.000003 0.000002 2.741255 0.000000 -0.000000 0.000003 0.086753 2.267445 8.921724 0.389418 -24.031730 -2.737324 -0.000019 0.000002 4.061087 -0.836669 -17.162408 -1.082335 -0.000006 0.000006 3.654987 0.163329 -17.162431 -1.082317 0.000010 -0.000006 2.741227 -0.000002 0.000001 -0.000001 -0.173496 4.467208 7.977000 8.605933 -32.956879 -10.665969 0.000013 -0.000000 3.350444 -0.941404 -24.027791 -4.971308 -0.000006 0.000007 2.842793 1.058581 -24.027885 -4.971308 -0.000016 0.000004 2.639710 0.000001 0.000000 -0.000001 0.000013 0.000007 -0.000000 0.000000 -0.000002 -0.000001 0.000004 -0.000002 -0.000001 -0.000001 0.000000 0.000003 2.625375 0.000007 11.175219 -0.616580 89.793403 2.893778 -0.000002 -0.000003 10.813631 56.006984 51.756353 39.729660 -0.000005 -0.000041 28.724773 -25.022128 4.083887 56.842853 0.644376 0.328874 25.716164 -8.478363 -12.458689 -7.073359 2.867315 -2.944288 3.959559 -31.555494 17.972603 50.443717 -0.000006 -0.000013 3.350405 14.241464 -9.016052 -25.485910 -0.000005 0.000007 3.756532 9.455627 -6.949685 -17.427006 -0.000004 0.000003 3.100022 0.000000 0.000001 -0.000001 0.086739 -2.345277 10.030901 -4.215772 25.362792 -11.838617 -0.000002 -0.000007 4.061098 0.041461 18.888045 -2.756135 0.000000 0.000011 3.248878 -0.458536 18.888045 -2.756144 0.000011 -0.000006 2.639725 -0.000000 -0.000002 -0.000002 -0.104099 -0.006770 9.502937 1.885524 29.747970 -8.507348 0.000007 0.000001 4.568710 0.275982 21.473966 -1.181330 0.000004 0.000000 3.654968 -0.224014 21.473985 -1.181319 0.000002 -0.000005 2.741242 -0.000001 0.000001 -0.000001 -0.086724 2.267443 8.921709 14.598911 40.353796 4.978639 0.000009 0.000006 4.061069 -0.501737 28.890174 1.934097 0.000017 -0.000001 3.654995 0.498265 28.890160 1.934109 -0.000011 0.000011 2.741255 -0.000000 -0.000001 0.000004 0.173486 4.467196 7.976985 30.104650 45.319599 23.259444 0.000007 0.000005 3.350409 0.357773 34.319952 7.625449 0.000008 0.000003 2.842759 2.357775 34.319996 7.625449 0.000002 0.000003 2.639712 0.000001 0.000003 -0.000003 -0.000002 -0.000005 0.000029 -0.000000 -0.000002 0.000001 -0.000002 0.000005 -0.000002 0.000002 -0.000003 0.000003 -11.289947 -0.000010 0.000003 -9.123131 -7.646212 17.300335 -0.000009 -0.000010 -38.200321 -0.622958 0.127352 11.516949 -0.000002 -0.000005 -39.900860 -16.740992 6.006719 12.544259 -0.000003 -15.261646 0.000008 -0.714592 0.147107 -28.025779 -0.000004 -7.370708 0.000000 -0.000000 0.000000 -0.000000 -0.000005 -0.000012 0.000004 0.000002 0.000000 -0.000000 -0.000003 -0.000008 0.000003 0.000001 -0.000000 0.000001 11.315660 -0.000005 -0.000000 5.862077 -22.055307 8.313091 0.000001 -0.000012 -38.200325 1.486780 -0.665902 24.256747 0.000002 -0.000006 -39.900860 2.235927 9.170156 11.131778 0.000003 -15.261647 0.000004 1.064933 -0.958738 -27.352435 -0.000004 -7.540005 -0.000000 0.000000 -0.000000 0.000000 0.000002 -0.000004 0.000001 0.000000 0.000000 0.000001 0.000002 -0.000004 -0.000007 -0.000000 0.000001 -0.000000 
